<svg xmlns="http://www.w3.org/2000/svg" viewBox="0 0 1200 300" fill="none">
  <defs>
    <linearGradient id="bg" x1="0" y1="0" x2="1200" y2="300">
      <stop offset="0%" stop-color="#0a0a0a"/>
      <stop offset="100%" stop-color="#111827"/>
    </linearGradient>
    <linearGradient id="accent" x1="0" y1="0" x2="1" y2="1">
      <stop offset="0%" stop-color="#60a5fa"/>
      <stop offset="100%" stop-color="#a78bfa"/>
    </linearGradient>
    <linearGradient id="glow" x1="0" y1="0" x2="0" y2="1">
      <stop offset="0%" stop-color="#60a5fa" stop-opacity="0.15"/>
      <stop offset="100%" stop-color="#a78bfa" stop-opacity="0"/>
    </linearGradient>
  </defs>
  <rect width="1200" height="300" fill="url(#bg)"/>
  <rect x="0" y="0" width="1200" height="300" fill="url(#glow)"/>
  <!-- Grid dots -->
  <g opacity="0.08">
    <circle cx="100" cy="50" r="1.5" fill="#60a5fa"/>
    <circle cx="200" cy="50" r="1.5" fill="#60a5fa"/>
    <circle cx="300" cy="50" r="1.5" fill="#60a5fa"/>
    <circle cx="400" cy="50" r="1.5" fill="#60a5fa"/>
    <circle cx="500" cy="50" r="1.5" fill="#60a5fa"/>
    <circle cx="600" cy="50" r="1.5" fill="#60a5fa"/>
    <circle cx="700" cy="50" r="1.5" fill="#60a5fa"/>
    <circle cx="800" cy="50" r="1.5" fill="#60a5fa"/>
    <circle cx="900" cy="50" r="1.5" fill="#60a5fa"/>
    <circle cx="1000" cy="50" r="1.5" fill="#60a5fa"/>
    <circle cx="1100" cy="50" r="1.5" fill="#60a5fa"/>
    <circle cx="100" cy="150" r="1.5" fill="#a78bfa"/>
    <circle cx="200" cy="150" r="1.5" fill="#a78bfa"/>
    <circle cx="300" cy="150" r="1.5" fill="#a78bfa"/>
    <circle cx="400" cy="150" r="1.5" fill="#a78bfa"/>
    <circle cx="500" cy="150" r="1.5" fill="#a78bfa"/>
    <circle cx="600" cy="150" r="1.5" fill="#a78bfa"/>
    <circle cx="700" cy="150" r="1.5" fill="#a78bfa"/>
    <circle cx="800" cy="150" r="1.5" fill="#a78bfa"/>
    <circle cx="900" cy="150" r="1.5" fill="#a78bfa"/>
    <circle cx="1000" cy="150" r="1.5" fill="#a78bfa"/>
    <circle cx="1100" cy="150" r="1.5" fill="#a78bfa"/>
    <circle cx="100" cy="250" r="1.5" fill="#60a5fa"/>
    <circle cx="200" cy="250" r="1.5" fill="#60a5fa"/>
    <circle cx="300" cy="250" r="1.5" fill="#60a5fa"/>
    <circle cx="400" cy="250" r="1.5" fill="#60a5fa"/>
    <circle cx="500" cy="250" r="1.5" fill="#60a5fa"/>
    <circle cx="600" cy="250" r="1.5" fill="#60a5fa"/>
    <circle cx="700" cy="250" r="1.5" fill="#60a5fa"/>
    <circle cx="800" cy="250" r="1.5" fill="#60a5fa"/>
    <circle cx="900" cy="250" r="1.5" fill="#60a5fa"/>
    <circle cx="1000" cy="250" r="1.5" fill="#60a5fa"/>
    <circle cx="1100" cy="250" r="1.5" fill="#60a5fa"/>
  </g>
  <!-- Flow arrows -->
  <g opacity="0.12">
    <path d="M150 200 L300 200 L300 100 L450 100" stroke="#60a5fa" stroke-width="1.5" fill="none" stroke-dasharray="6 4"/>
    <path d="M450 100 L600 100 L600 200 L750 200" stroke="#a78bfa" stroke-width="1.5" fill="none" stroke-dasharray="6 4"/>
    <path d="M750 200 L900 200 L900 100 L1050 100" stroke="#60a5fa" stroke-width="1.5" fill="none" stroke-dasharray="6 4"/>
  </g>
  <!-- Title -->
  <text x="600" y="125" text-anchor="middle" font-family="-apple-system, BlinkMacSystemFont, 'Segoe UI', sans-serif" font-size="72" font-weight="800" letter-spacing="-2">
    <tspan fill="url(#accent)">Ekko</tspan>
  </text>
  <!-- Subtitle -->
  <text x="600" y="170" text-anchor="middle" font-family="-apple-system, BlinkMacSystemFont, 'Segoe UI', sans-serif" font-size="18" fill="#666" font-weight="400">
    Master of Time for Long-Running Harness
  </text>
  <!-- Tagline -->
  <text x="600" y="210" text-anchor="middle" font-family="-apple-system, BlinkMacSystemFont, 'Segoe UI', sans-serif" font-size="14" fill="#555" font-weight="400">
    Plan · Implement · Evaluate · Review · Iterate
  </text>
  <!-- Bottom line -->
  <rect x="400" y="240" width="400" height="1" fill="url(#accent)" opacity="0.3" rx="0.5"/>
</svg>
